<svg width="23" height="23" viewBox="0 0 23 23" fill="none" xmlns="http://www.w3.org/2000/svg">
<path d="M1.26644 0C0.0861926 0.0258427 4.34609e-05 1.26629 4.34609e-05 1.26629C4.34609e-05 1.26629 0.00865839 20.588 4.34609e-05 21.7165C-0.00857147 22.8449 1.26644 22.9828 1.26644 22.9828H12.2763V14.0929H9.27833V10.6213H12.2763V8.06292C12.2936 3.15281 16.7389 3.48015 16.7389 3.48015C16.7389 3.48015 19.4181 3.48015 19.4181 3.61798V6.7191H17.5831C15.6275 6.70187 15.8601 8.40749 15.8601 8.40749V10.6213H19.2975L18.8495 14.0929H15.8601V23C15.8601 23 20.4519 23 21.7183 23C22.9847 23 22.9847 21.7337 22.9847 21.7337C22.9847 21.7337 23.0191 2.52397 22.9847 1.28352C22.9502 0.0430707 21.7183 0.0172282 21.7183 0.0172282H1.26644V0Z" fill="#3C5A99"/>
</svg>
