<svg width="23" height="23" viewBox="0 0 23 23" fill="#FFE812" xmlns="http://www.w3.org/2000/svg">
<path d="M23 21.2031C23 22.1955 22.1955 23 21.2031 23H1.79688C0.804461 23 0 22.1955 0 21.2031V1.79688C0 0.804461 0.804461 0 1.79688 0H21.2031C22.1955 0 23 0.804461 23 1.79688V21.2031Z" fill="#FFE812"/>
<path d="M11.5 3.23438C6.33955 3.23438 2.15625 6.53281 2.15625 10.6016C2.15625 13.2321 3.90515 15.5403 6.53595 16.8436C6.39283 17.3372 5.61622 20.0191 5.58532 20.2298C5.58532 20.2298 5.56672 20.3881 5.66923 20.4484C5.77174 20.5088 5.89231 20.4619 5.89231 20.4619C6.18628 20.4209 9.30125 18.2328 9.84041 17.8529C10.379 17.9291 10.9336 17.9688 11.5 17.9688C16.6604 17.9688 20.8438 14.6704 20.8438 10.6016C20.8438 6.53281 16.6604 3.23438 11.5 3.23438Z" fill="black"/>
<path d="M6.33398 13.1733C6.03669 13.1733 5.79492 12.9424 5.79492 12.6585V9.45605H4.9538C4.66208 9.45605 4.4248 9.21923 4.4248 8.92822C4.4248 8.63722 4.66217 8.40039 4.9538 8.40039H7.71416C8.00589 8.40039 8.24316 8.63722 8.24316 8.92822C8.24316 9.21923 8.0058 9.45605 7.71416 9.45605H6.87305V12.6585C6.87305 12.9424 6.63128 13.1733 6.33398 13.1733ZM11.0608 13.1663C10.8361 13.1663 10.6641 13.0751 10.6123 12.9282L10.3453 12.2294L8.70155 12.2294L8.43444 12.9286C8.38278 13.0751 8.21091 13.1663 7.98612 13.1663C7.86788 13.1665 7.751 13.1411 7.64346 13.0919C7.49486 13.0234 7.352 12.8349 7.5157 12.3265L8.80514 8.93253C8.89597 8.67441 9.17188 8.40848 9.52299 8.40048C9.87509 8.40839 10.151 8.67441 10.242 8.93307L11.5309 12.3255C11.695 12.8351 11.5521 13.0237 11.4035 13.092C11.2959 13.1411 11.1791 13.1664 11.0608 13.1663C11.0608 13.1663 11.0608 13.1663 11.0608 13.1663V13.1663ZM10.0619 11.2746L9.52344 9.74499L8.985 11.2746H10.0619V11.2746ZM12.3984 13.0947C12.1135 13.0947 11.8818 12.873 11.8818 12.6006V8.93945C11.8818 8.64216 12.1287 8.40039 12.4321 8.40039C12.7355 8.40039 12.9824 8.64216 12.9824 8.93945V12.1064H14.1279C14.4128 12.1064 14.6445 12.3282 14.6445 12.6006C14.6445 12.873 14.4128 13.0947 14.1279 13.0947H12.3984ZM15.3933 13.1663C15.096 13.1663 14.8542 12.9246 14.8542 12.6273V8.93945C14.8542 8.64216 15.096 8.40039 15.3933 8.40039C15.6906 8.40039 15.9324 8.64216 15.9324 8.93945V10.0981L17.4363 8.59409C17.5137 8.51674 17.62 8.47415 17.7353 8.47415C17.8699 8.47415 18.005 8.53219 18.1063 8.63336C18.2007 8.72769 18.2571 8.84907 18.2648 8.97512C18.2726 9.10225 18.2303 9.21878 18.1458 9.30332L16.9174 10.5316L18.2443 12.2895C18.2871 12.3459 18.3184 12.4102 18.3361 12.4788C18.3539 12.5473 18.3579 12.6187 18.3478 12.6888C18.3382 12.759 18.3148 12.8265 18.2789 12.8875C18.243 12.9486 18.1953 13.0019 18.1386 13.0443C18.0454 13.1152 17.9315 13.1534 17.8144 13.1531C17.7309 13.1535 17.6484 13.1343 17.5736 13.0971C17.4989 13.0599 17.4338 13.0057 17.3838 12.9388L16.1196 11.2638L15.9325 11.4509V12.627C15.9324 12.77 15.8755 12.907 15.7744 13.0081C15.6733 13.1093 15.5363 13.1661 15.3933 13.1663V13.1663Z" fill="#FFE812"/>
</svg>
