<svg width="56" height="45" viewBox="0 0 56 50" fill="none" xmlns="http://www.w3.org/2000/svg">
<path d="M24.4595 4.68834C25.2092 3.93934 27.6009 2.89634 27.8506 2.39623C27.9688 2.15901 27.3427 1.75301 27.1 1.64645C26.3549 1.32057 24.601 1.64645 23.8512 1.52201C21.1026 0.147677 19.1037 -0.10199 17.3545 0.64701C14.6058 1.8969 14.1065 5.1449 14.1065 6.39479C14.1065 7.52101 14.0427 9.78201 13.856 10.8919C13.7806 11.3407 13.534 12.2235 13.3567 12.6419C12.8566 14.3911 11.6067 16.1403 10.6072 17.3895C9.88778 18.2893 3.86078 25.1361 2.86056 27.135C1.96378 28.8741 -0.387439 32.8828 0.612783 34.3816C1.63167 34.5278 1.86189 31.1336 6.86923 27.135C8.08101 26.0407 10.0892 23.999 10.4594 23.355C10.6344 23.0501 10.4664 24.559 10.4594 24.9106C10.3436 31.0262 11.2372 34.2439 11.2318 37.88C11.6067 39.8789 11.623 40.596 11.2318 41.3785C10.1071 43.627 8.10823 43.627 7.60812 44.5028C7.60812 44.5028 9.94145 46.1283 15.256 42.9083L24.4595 4.68834ZM21.2941 21.2352C22.1528 22.1025 28.0186 28.0621 28.6245 28.6346C30.1349 30.0626 33.7453 35.1313 34.5535 34.3823C34.8249 34.1319 35.2433 32.8665 35.094 32.3819C34.4609 30.3278 31.7402 26.1597 29.5228 22.3252C27.2812 18.4472 25.6782 15.0227 25.6782 15.0227L22.9412 9.70583L21.2941 21.2352ZM18.0459 43.1456C22.1891 46.6191 27.4197 43.8572 27.4197 43.8572C27.4197 43.41 24.3521 41.8062 21.185 40.1745" fill="#3F3F3F"/>
<path d="M15.1625 12.1765C15.1845 13.0554 20.2186 16.0454 22.941 12.1765C22.941 12.1765 22.4579 20.1554 23.9565 22.7982C25.7065 25.8852 23.6047 37.9814 20.2923 42.0502C19.1726 43.4251 15.0519 45.5222 12.964 38.7309C10.8762 31.9396 11.4984 32.1839 11.4984 28.1091C11.4984 24.0343 17.0166 15.4958 15.1625 12.1765Z" fill="white"/>
<path d="M19 3.5C19 3.77614 18.7761 4 18.5 4C18.2239 4 18 3.77614 18 3.5C18 3.22386 18.2239 3 18.5 3C18.7761 3 19 3.22386 19 3.5Z" fill="white"/>
<path d="M33.8407 31.354L33.0924 30.4254L32.6335 30.8719C32.6335 30.8719 32.9242 31.1108 32.7664 31.4451C32.6086 31.7795 32.0063 32.4844 31.7837 32.6256C31.5611 32.7668 31.0752 32.7375 31.0752 32.7375L31.0139 33.6947L31.7564 33.941L33.8407 31.354V31.354Z" fill="#6C6D6F"/>
<path d="M32.7535 33.5512C33.7478 32.4958 38.5446 27.4355 38.5446 27.4355C38.5446 27.4355 43.9595 31.9015 49.9967 27.2075C52.1182 25.5622 53.0387 23.397 53.2638 21.3327C53.573 18.4989 52.6694 16.126 51.2013 14.4038C49.9218 12.9044 48.586 11.7405 46.0882 11.1533C43.8875 10.6358 41.3155 10.5965 38.5574 12.5627C35.652 14.633 34.7213 17.2224 34.7002 19.5476C34.6695 23.0579 36.2044 25.0806 36.4431 25.3784C36.4431 25.3784 32.9021 29.2912 31.0189 31.4004C30.0801 32.4523 29.9262 33.3744 30.4879 33.9592C31.0949 34.5919 31.8864 34.4738 32.7535 33.5512V33.5512ZM32.7535 33.5512C33.7478 32.4958 38.5446 27.4355 38.5446 27.4355C38.5446 27.4355 43.9595 31.9015 49.9967 27.2075C52.1182 25.5622 53.0387 23.397 53.2638 21.3327C53.573 18.4989 52.6694 16.126 51.2013 14.4038C49.9218 12.9044 48.586 11.7405 46.0882 11.1533C43.8875 10.6358 41.3155 10.5965 38.5574 12.5627C35.652 14.633 34.7213 17.2224 34.7002 19.5476C34.6695 23.0579 36.2044 25.0806 36.4431 25.3784L32.7535 33.5512ZM31.4559 33.1176C31.1395 32.8315 31.4967 32.3709 32.1149 31.6588C32.6994 30.9872 32.9856 30.9123 33.2159 31.0909C33.499 31.3117 33.2793 31.6615 32.8107 32.2218C32.342 32.7821 31.7444 33.3806 31.4559 33.1176Z" fill="#2F2F2F"/>
<path d="M49.5558 14.8324C47.2699 12.4075 42.4117 11.2171 38.6652 14.6925C35.0794 18.0184 36.6199 23.2367 38.7549 25.4688C40.9934 27.8096 46.0878 28.742 49.5467 25.2492C52.2795 22.4921 52.6139 18.0781 49.5558 14.8324Z" fill="#6C6D6F"/>
<path d="M40.3157 16.6988L38.5529 16.1955C38.5529 16.1955 37.5832 17.0029 37.8643 18.8127C37.9502 19.3642 38.1288 19.9401 38.0418 20.4773C37.8435 21.7048 38.1003 23.0059 38.7611 23.8187C39.7207 25.0004 41.9387 26.3361 44.6971 26.0079C48.2197 25.5903 49.4973 23.4215 49.4973 23.4215L40.3157 16.6988Z" fill="#54585B"/>
<path d="M39.1611 15.5002C37.3752 17.1178 38.3706 19.1251 38.5055 20.0105C38.6404 20.8959 38.3302 20.8847 38.5846 22.1604C38.8929 23.7131 41.3357 25.5819 44.5849 25.4546C48.2664 25.3102 51.1691 22.8999 50.73 19.9071C50.5582 18.7437 50.0758 17.7115 48.8256 17.0732C47.5016 16.3965 45.9753 16.6117 45.306 16.2208C44.1727 15.5616 41.5702 13.3184 39.1611 15.5002V15.5002Z" fill="white"/>
<path d="M42.3256 18.4728C41.2249 19.5602 41.2799 21.7683 42.6244 22.728C43.9686 23.6856 45.7125 23.3258 46.5717 22.1179C47.6189 20.6478 47.0719 18.7735 45.6588 17.9727C44.321 17.2186 43.0581 17.7488 42.3256 18.4728V18.4728Z" fill="#FF8E00"/>
<path d="M43.0014 18.9616C42.9992 19.8392 44.2453 19.5039 44.8022 19.8094C45.3592 20.1148 45.5085 20.9481 46.1017 20.7944C46.6949 20.6407 46.5754 19.2999 45.43 18.6451C44.3137 18.0087 43.0048 18.1742 43.0014 18.9616Z" fill="#FFB502"/>
<path d="M53.0014 19.9616C52.9992 20.8392 54.2453 20.5039 54.8022 20.8094C55.3592 21.1148 55.5085 21.9481 56.1017 21.7944C56.6949 21.6407 56.5754 20.2999 55.43 19.6451C54.3137 19.0087 53.0048 19.1742 53.0014 19.9616Z" fill="#FFB502"/>
</svg>

