<svg width="" height="" viewBox="0 0 179 176" fill="none" xmlns="http://www.w3.org/2000/svg">
<rect width="179" height="176" rx="2" fill="#C4C4C4"/>
<path d="M72.044 94H73.424V87.4H72.044V94ZM72.728 86.164C73.232 86.164 73.592 85.84 73.592 85.336C73.592 84.844 73.232 84.52 72.728 84.52C72.224 84.52 71.876 84.844 71.876 85.336C71.876 85.84 72.224 86.164 72.728 86.164ZM75.4893 94H76.8693V89.32C77.4093 88.72 77.9013 88.42 78.3453 88.42C79.1013 88.42 79.4493 88.876 79.4493 90.016V94H80.8293V89.32C81.3813 88.72 81.8613 88.42 82.3173 88.42C83.0613 88.42 83.4213 88.876 83.4213 90.016V94H84.8013V89.848C84.8013 88.168 84.1533 87.232 82.7733 87.232C81.9453 87.232 81.2733 87.748 80.6253 88.444C80.3373 87.688 79.7853 87.232 78.8013 87.232C77.9853 87.232 77.3253 87.724 76.7613 88.324H76.7253L76.6173 87.4H75.4893V94ZM88.3579 94.156C89.1499 94.156 89.8579 93.76 90.4579 93.244H90.5059L90.6139 94H91.7419V90.028C91.7419 88.276 90.9859 87.232 89.3419 87.232C88.2859 87.232 87.3619 87.664 86.6779 88.096L87.1939 89.032C87.7579 88.672 88.4059 88.36 89.1019 88.36C90.0739 88.36 90.3499 89.032 90.3619 89.8C87.6139 90.1 86.4139 90.832 86.4139 92.248C86.4139 93.412 87.2179 94.156 88.3579 94.156ZM88.7779 93.064C88.1899 93.064 87.7459 92.8 87.7459 92.152C87.7459 91.408 88.4059 90.904 90.3619 90.676V92.296C89.8219 92.788 89.3539 93.064 88.7779 93.064ZM95.9563 96.964C98.0683 96.964 99.4123 95.932 99.4123 94.66C99.4123 93.532 98.5963 93.052 97.0363 93.052H95.8242C94.9843 93.052 94.7203 92.8 94.7203 92.404C94.7203 92.08 94.8643 91.9 95.0803 91.708C95.3683 91.84 95.7043 91.912 96.0043 91.912C97.3843 91.912 98.4763 91.084 98.4763 89.644C98.4763 89.14 98.2963 88.696 98.0443 88.432H99.3043V87.4H96.9643C96.7123 87.304 96.3763 87.232 96.0043 87.232C94.6363 87.232 93.4482 88.108 93.4482 89.596C93.4482 90.388 93.8683 91.012 94.3243 91.36V91.408C93.9523 91.672 93.5803 92.116 93.5803 92.632C93.5803 93.172 93.8443 93.52 94.1803 93.724V93.784C93.5683 94.156 93.2203 94.672 93.2203 95.224C93.2203 96.376 94.3723 96.964 95.9563 96.964ZM96.0043 91.024C95.3203 91.024 94.7563 90.484 94.7563 89.596C94.7563 88.708 95.3083 88.204 96.0043 88.204C96.7003 88.204 97.2523 88.72 97.2523 89.596C97.2523 90.484 96.6883 91.024 96.0043 91.024ZM96.1603 96.052C95.0683 96.052 94.3963 95.668 94.3963 95.02C94.3963 94.684 94.5643 94.348 94.9603 94.06C95.2363 94.12 95.5363 94.156 95.8483 94.156H96.8443C97.6483 94.156 98.0803 94.324 98.0803 94.876C98.0803 95.488 97.3123 96.052 96.1603 96.052ZM103.187 94.156C104.051 94.156 104.807 93.868 105.419 93.46L104.939 92.584C104.459 92.896 103.955 93.076 103.367 93.076C102.227 93.076 101.435 92.32 101.327 91.06H105.611C105.647 90.892 105.683 90.628 105.683 90.352C105.683 88.492 104.735 87.232 102.983 87.232C101.447 87.232 99.9705 88.564 99.9705 90.7C99.9705 92.884 101.399 94.156 103.187 94.156ZM101.315 90.1C101.447 88.948 102.179 88.312 103.007 88.312C103.967 88.312 104.483 88.972 104.483 90.1H101.315Z" fill="white"/>
</svg>
